<svg xmlns="http://www.w3.org/2000/svg" width="200" height="200"><g fill="none" fill-rule="nonzero"><path fill="#0D4D84" d="M191.464 27.112c-2.243.277-3.365.412-5.608.683l.117 38.67c.222 12.246-9.238 22.097-21.8 19.152-.935-.203-1.403-.302-2.34-.497-11.794-2.592-21.568-13.182-21.744-25.497l-.177-34.103a601 601 0 0 0-3.27-.636c-1.304.178-1.955.268-3.26.448.068 15.357.143 30.714.212 46.071 2.268.59 3.402.894 5.667 1.529l.043 8.373a464 464 0 0 0-22.705-2.11c-.007-3.253-.013-4.879-.021-8.13 2.271-.25 3.405-.366 5.672-.583q-.05-16.342-.108-32.686c-4.513 7.412-9.071 14.797-13.627 22.182a5925 5925 0 0 0-13.694-22.505l-.028 32.325c2.274.326 3.41.495 5.684.858v8.079a305 305 0 0 0-27.352 1.183c-6.057.536-10.994-2.8-12.995-7.928 1.184-3.157 1.85-6.48 1.867-9.89a25.66 25.66 0 0 0-2.748-11.742l.033-6.28c-2.034-.203-3.05-.3-5.083-.493-.165-.155-.333-.313-.501-.464l.012-1.906c1.866-.127 2.8-.189 4.667-.303l.03-6.024c.37-.018.555-.03.923-.047l1.119-18.49c4.054-.058 6.08-.082 10.134-.125-.03 7.257-.044 10.886-.075 18.143 3.726-.133 5.589-.188 9.317-.278l-.026 8.971c-3.734.481-5.6.737-9.334 1.283l-.089 21.314c-.01 2.268 1.852 3.924 4.192 3.756 3.546-.254 5.32-.36 8.868-.525q.058-21.946.112-43.893c-2.256-.333-3.385-.497-5.64-.824.01-3.268.016-4.903.028-8.172 6.385-.05 9.579-.066 15.965-.079 4.855 8.097 9.737 16.178 14.586 24.28a3004 3004 0 0 0 14.524-24.192c4.488.037 6.728.061 11.217.115 1.897.023 2.845.036 4.742.062a2327 2327 0 0 1 17.785.302l.05 8.706c-2.249.292-3.374.436-5.626.727q.101 17.935.205 35.869c.035 6.104 4.486 11.504 10.388 12.559.937.167 1.405.253 2.34.427 5.897 1.095 10.721-2.919 10.69-9.431l-.178-38.262A473 473 0 0 0 169 25.766c-.018-3.602-.03-5.403-.047-9.004q11.247.291 22.492.644zM34.15 85.936a310 310 0 0 0-24.123 6.372l.043-18.03a322 322 0 0 1 8.275-1.896c.358 2.39.538 3.584.896 5.96 5.709-1.345 8.574-1.958 14.318-3.063 4.818-.926 8.839-5.7 8.868-10.684.024-4.31-2.932-7.298-6.823-7.744-5.78-.582-8.666-.852-14.426-1.387-8.665-.955-12.965-9.677-12.87-17.575.12-9.853 6.79-19.907 17.39-20.308q12.216-.348 24.434-.583l-.057 9.877c-1.863.077-2.795.117-4.657.202-.014 2.478-.02 3.718-.035 6.196-1.484.09-2.226.136-3.708.232-.359-2.282-.537-3.426-.895-5.719-6.058.305-9.086.478-15.134.862-3.894.247-6.222 3.186-6.235 6.574l-.013 3.078c-.011 2.976 2.107 5.091 4.603 5.417 5.92.745 8.883 1.113 14.82 1.875a16.7 16.7 0 0 1 6.478 2.25l-.02 3.63c1.81.12 2.715.18 4.528.31q.556.698 1.041 1.456l-.082 14.473c-.01 1.666.148 3.27.455 4.792-3.45 6.668-9.742 11.71-17.071 13.433M191.427 8.522h-73.285c-.96 1.375-1.442 2.062-2.403 3.432a2630 2630 0 0 1-7.273 12.15c-2.927-4.884-4.387-7.313-7.304-12.17-.965-1.365-1.449-2.047-2.413-3.412H25.74c-7.055.005-13.674 3.17-18.208 8.554C2.454 23.106.032 31.04 0 38.83c-.041 10.01 4.173 21.5 14.463 25.024-1.75.34-2.624.514-4.372.874-3.31.68-4.962 1.035-8.26 1.778l-.006 9.853-.008 18.6c-.003 3.94-.002 5.91-.004 9.85a238 238 0 0 1 8.192-2.952 281 281 0 0 1 24.096-7.098c8.273-2.12 15.669-7.127 20.942-13.813 4.368 5.412 11.202 7.854 18.05 7.11 30.914-2.55 60.862-.434 91.13 6.347 17.68 4.515 30.224-8.987 30.022-26.156q-.02-15.816-.043-31.632c2.237-.2 3.357-.302 5.593-.506V8.522z"/><path fill="#EFBA31" d="M38.82 45.592c-5.936-.762-8.9-1.13-14.82-1.875-2.495-.326-4.613-2.44-4.602-5.417l.013-3.078c.013-3.388 2.34-6.327 6.235-6.574 6.048-.384 9.076-.557 15.134-.862.358 2.293.536 3.437.895 5.72 3.344-.217 5.019-.316 8.367-.501l.09-16.007q-12.218.235-24.434.583c-10.6.4-17.27 10.455-17.39 20.308-.095 7.898 4.205 16.62 12.87 17.575 5.76.535 8.645.805 14.426 1.387 3.891.446 6.847 3.433 6.823 7.744-.029 4.984-4.05 9.758-8.868 10.684-5.744 1.105-8.609 1.718-14.318 3.063-.358-2.376-.538-3.57-.896-5.96-3.317.72-4.97 1.101-8.275 1.895l-.043 18.03a310 310 0 0 1 24.123-6.37C44.67 83.413 53.44 73.93 53.595 62.97c.121-8.618-6.095-16.176-14.775-17.379"/><path fill="#FFF" d="m11.724 75.584-.036 14.487a313 313 0 0 1 22.103-5.752c10.197-2.444 18.01-11.635 18.148-21.372.11-7.886-5.623-14.64-13.338-15.713-4.724-.606-7.565-.963-11.516-1.46l-3.291-.414c-3.524-.459-6.066-3.43-6.052-7.067l.012-3.078c.018-4.477 3.293-7.935 7.787-8.22 6.063-.385 9.037-.555 15.155-.863l1.49-.075.891 5.699c1.944-.124 3.38-.21 5.317-.319l.072-12.75c-7.783.156-15.418.34-22.72.55-9.736.368-15.673 9.783-15.781 18.671-.088 7.272 3.797 15.072 11.395 15.91 5.572.516 8.525.792 14.41 1.385 4.932.565 8.34 4.43 8.313 9.402-.033 5.707-4.613 11.224-10.21 12.3-5.74 1.104-8.538 1.703-14.252 3.05l-1.75.412-.901-5.989c-1.859.41-3.263.734-5.246 1.206m-3.36 18.968.053-21.58 1.266-.305c3.38-.813 5.01-1.186 8.31-1.904l1.727-.375.892 5.932c4.652-1.084 7.457-1.672 12.635-2.668 4.054-.78 7.5-4.931 7.523-9.066.019-3.273-2.133-5.72-5.355-6.09-5.85-.588-8.798-.864-14.39-1.383-9.586-1.057-14.48-10.48-14.373-19.244.127-10.439 7.262-21.5 18.983-21.943 7.86-.225 16.085-.422 24.465-.584l1.697-.033-.108 19.264-1.556.085c-3.342.186-5.014.285-8.352.5l-1.509.097-.898-5.74c-5.137.263-8.09.435-13.623.785-3.223.206-4.675 2.623-4.684 4.929l-.012 3.078c-.009 2.201 1.583 3.562 3.16 3.767l3.283.413c3.957.498 6.8.855 11.533 1.463l.016.002c9.373 1.298 16.338 9.484 16.205 19.042-.158 11.205-9.065 21.76-20.717 24.553a310 310 0 0 0-24.021 6.344z"/><path fill="#EFBA31" d="m168.952 16.762.047 9.004c2.251.515 3.376.78 5.625 1.318l.178 38.262c.031 6.512-4.793 10.526-10.69 9.43a266 266 0 0 0-2.34-.426c-5.902-1.055-10.353-6.455-10.388-12.56q-.104-17.932-.205-35.868c2.252-.29 3.377-.435 5.627-.727l-.05-8.706a2327 2327 0 0 0-17.786-.302 2153 2153 0 0 0-4.742-.062 2411 2411 0 0 0-11.217-.115c-4.797 8.09-9.65 16.147-14.524 24.191-4.85-8.1-9.73-16.182-14.586-24.279-6.386.013-9.58.03-15.965.079l-.028 8.172c2.255.327 3.384.491 5.64.824q-.054 21.947-.112 43.893c-3.549.165-5.322.27-8.868.525-2.34.168-4.201-1.488-4.192-3.756q.044-10.658.09-21.314c5.212-.62 7.82-.896 13.035-1.393l.023-8.943c-5.208.103-7.81.175-13.016.36.03-7.257.044-10.886.075-18.143-4.054.043-6.08.067-10.134.125L59.33 34.84c-2.234.11-3.354.169-5.588.294l-.046 8.404c2.233.21 3.352.318 5.586.538l-.12 22.628c-.04 7.722 6.13 13.915 13.963 13.213 1.839-.162 2.76-.236 4.6-.371a304.477 304.477 0 0 1 22.752-.812v-8.079c-2.274-.363-3.41-.532-5.684-.858l.028-32.325a5925 5925 0 0 1 13.694 22.505c4.556-7.385 9.114-14.77 13.627-22.182q.058 16.343.108 32.686c-2.267.217-3.4.332-5.672.582.008 3.252.014 4.878.021 8.13 7.608.52 15.132 1.22 22.705 2.111l-.043-8.373c-2.265-.635-3.399-.939-5.667-1.529-.069-15.357-.144-30.714-.213-46.071 1.306-.18 1.957-.27 3.262-.448 1.307.25 1.961.378 3.269.636l.177 34.103c.176 12.315 9.95 22.905 21.744 25.497.937.195 1.405.294 2.34.497 12.562 2.945 22.022-6.906 21.8-19.152l-.117-38.67c2.243-.271 3.365-.406 5.608-.683l-.02-9.706q-11.245-.353-22.492-.644"/><path fill="#FFF" d="m72.116 45.818-.084 19.847c-.002.608.216 1.133.63 1.52.452.423 1.09.627 1.788.578 3.025-.218 4.742-.325 7.334-.453l.058-22.534c-3.676.356-6.073.613-9.726 1.042m64.573-22.612.267.051c1.31.252 1.965.38 3.276.638l1.329.262.184 35.457c.16 11.086 8.948 21.362 20.444 23.888.923.192 1.394.292 2.335.495 4.99 1.17 9.75.18 13.42-2.784 4.097-3.309 6.48-8.811 6.373-14.718l-.123-40.169 2.096-.253c1.349-.162 2.305-.277 3.515-.426l-.014-6.636a4244 4244 0 0 0-19.174-.549l.032 5.982c1.494.346 2.574.601 4.362 1.03l1.263.303.185 39.561c.017 3.69-1.343 6.865-3.83 8.944-2.375 1.984-5.505 2.739-8.818 2.123-.932-.172-1.398-.258-2.33-.424-6.661-1.191-11.714-7.287-11.754-14.181l-.212-37.333 5.627-.727-.033-5.627c-6.095-.121-9.574-.179-16.162-.27-1.896-.026-2.843-.038-4.74-.061-4.156-.05-6.384-.075-10.257-.108a2992 2992 0 0 1-14.046 23.385l-1.425 2.353-1.413-2.36a7621 7621 0 0 0-8.16-13.586q-2.974-4.941-5.942-9.885c-5.229.011-8.334.026-13.378.064l-.017 5.096c1.421.206 2.49.362 4.22.618l1.418.209L85.204 25q-.053 21.947-.112 43.893l-.004 1.577-1.575.073c-3.532.164-5.264.267-8.826.523-1.632.118-3.153-.402-4.287-1.461-1.09-1.02-1.687-2.423-1.68-3.954l.096-22.78 1.454-.172c4.667-.554 7.212-.831 11.58-1.253l.013-5.747a669 669 0 0 0-11.296.324l-1.723.062.076-18.186c-2.539.028-4.344.05-6.91.086l-1.116 18.437-1.482.073c-1.65.08-2.69.134-4.022.207l-.03 5.33c1.36.128 2.41.23 4.085.396l1.502.149-.128 24.135c-.018 3.372 1.335 6.56 3.712 8.744 2.281 2.097 5.28 3.097 8.446 2.81 1.851-.162 2.777-.237 4.627-.372a307.286 307.286 0 0 1 21.217-.814v-5.01a316 316 0 0 0-4.262-.633l-1.423-.204.033-39.643 3.065 5.018c3.742 6.126 8.03 13.152 12.294 20.192a4164 4164 0 0 0 12.2-19.867l3.05-5.008.02 5.864q.058 16.345.109 32.687l.005 1.51-1.504.144c-1.71.164-2.773.269-4.17.418l.014 5.1c6.53.468 12.904 1.058 19.386 1.796l-.027-5.254c-1.551-.43-2.632-.716-4.434-1.185l-1.234-.32-.225-48.797zm31.891 64.59c-1.565 0-3.166-.187-4.785-.567-.901-.195-1.366-.294-2.298-.487-12.976-2.851-22.884-14.498-23.064-27.096l-.17-32.762c-.528-.102-1.017-.198-1.665-.322l-1.554.213.2 43.347c1.52.4 2.62.697 4.465 1.214l1.202.338.059 11.495-1.86-.218a460 460 0 0 0-22.623-2.104l-1.54-.105-.03-11.161 1.48-.163c1.721-.19 2.792-.303 4.193-.44q-.04-12.662-.084-25.325a5722 5722 0 0 1-9.954 16.179l-2.051 3.325-1.403-2.321a5038 5038 0 0 0-10.626-17.48l-.02 25.008c1.446.21 2.527.376 4.286.657l1.395.223.002 11.15-1.66-.003a305 305 0 0 0-22.629.807c-1.83.135-2.746.208-4.575.37-4.107.368-8.006-.936-10.982-3.672-3.062-2.815-4.806-6.897-4.783-11.2l.112-21.118c-1.36-.133-2.405-.233-4.076-.39l-1.51-.142.062-11.477 1.556-.087c1.687-.096 2.74-.152 4.117-.221l1.121-18.544 1.537-.022c4.057-.058 6.084-.083 10.141-.125l1.681-.018-.076 18.102c3.639-.126 6.039-.192 9.703-.268l.014-5.959a1594 1594 0 0 0-4.218-.614l-1.424-.206.039-11.25 1.637-.013c6.39-.05 9.586-.065 15.975-.078l.94-.002.484.806a8682 8682 0 0 0 6.424 10.688q3.38 5.613 6.75 11.233a2830 2830 0 0 0 13.092-21.827l.486-.818.952.007c4.49.037 6.732.062 11.223.116 1.898.023 2.847.035 4.745.062 7.156.099 10.649.159 17.796.303l1.614.032.067 11.783-5.626.729.196 34.403c.03 5.322 3.91 10.025 9.024 10.938.941.168 1.41.254 2.352.43 2.324.43 4.485-.07 6.09-1.41 1.715-1.433 2.653-3.7 2.64-6.385l-.172-36.96c-1.49-.356-2.563-.606-4.345-1.014l-1.28-.293-.063-12.026 1.708.045c7.675.2 15.246.416 22.502.644l1.601.05.025 12.775-1.455.18c-1.702.211-2.76.34-4.15.507l.113 37.199c.125 6.895-2.717 13.383-7.605 17.33-3.27 2.64-7.223 4.004-11.445 4.005"/><path fill="#0D4D84" d="M195.256 101.957h-.72v-4.341h-.025l-1.732 4.341h-.468l-1.685-4.341h-.024v4.341h-.721v-5.063h1.214l1.455 3.644 1.503-3.644h1.203zm-6.35-4.341h-1.683v4.341h-.721v-4.341h-1.696v-.722h4.1z"/><path fill="#BF1B2C" d="M107.19 155.477s10.684 14.672-.95 21.712c-11.636 7.04-17.61.704-17.61.704s7.739 6.862 14.051 4.567c0 0-3.054 2.963-12.862 6.781 0 0 40.173-6.684 25.595-32.894z"/><path fill="#FFF" d="m48.23 113.613 29.08-4.335.605 21.674-24.232 3.61z"/><path fill="#0D4D84" d="M145.631 99.312s-2.863-4.41-2.492-4.851c-.541-4.581-3.445-13.935-4.633-15.001-2.66-2.395-5.647-.882-10.633.016-8.193 1.486-35.538-4.623-45.815-10.362-5.077-2.837-17.185 18.131-17.185 18.131-19.738 6.602-31.545 20.856-31.545 20.856l18.34 35.733 26.513-7.336c-.406-1.173-1.116-3.48-1.487-4.664l-16.223.161c-1.807-1.79-5.565-13.809-6.708-17.92l-5.973.628-1.258-1.153 24.628-5.87 2.375-1.4C82.417 149.876 92.794 152 92.794 152c22.92 4.23 42.176-2.369 42.176-2.369 3.548-15.683 3.887-33.988 3.887-33.988l8.489 3.986.758 1.977-2.751-1.561-1.465 12.367-.068 1.754-4.752-1.23c-.469 4.012.005 6.628-.273 8.723l8.912-1.245 11.22-23.92s-4.943-12.75-13.296-17.182"/><path fill="#FFF" d="m140.048 116.98 5.157 2.226-1.39 13.995-4.342-1.109z"/><path fill="#EFBA31" d="m106.107 76.635 18.984 2.805-7.345 11.284z"/><path fill="#05213D" d="M102.912 135.672s-2.2-3.688-5.004-2.442-2.559 5.987.76 6.752c0 0-3.045-6.853 4.244-4.31M125.279 137.1s6.622-3.516 4.594 3.932c0 0 3.527-2.451 2.086-5.165-1.435-2.703-6.156-2.13-6.68 1.233M126.53 155.02c.144-.007.355-.03.368-.07-.042.007-.073.007-.108.01q-.134.029-.26.06"/><path fill="#EFBA31" d="M88.634 86.55c-1.678-1.526-1.708-2.028-2.712-3.301-1.47-1.947-3.24-3.945-4.126-5.069-1.265 2.332-6.325 11.314-2.987 13.793 3.868 2.87 9.236 5.502 9.236 5.502s4.066-3.246 7.898-3.104a94 94 0 0 1-7.31-7.821M136.616 98.654c-1.02.828-2.57 2.104-3.81 2.869.477.074 1.764 1.464 2.947 3.106 0 0 5.72-3.628 6.483-4.481.768-.85-.158-7.899-.158-7.899-.79.97-2.332 2.567-3.3 3.498z"/><path fill="#05213D" d="m62.443 121.107-.523 3.397-.303 1.972 1.293-5.284 5.907 1.08-.683 4.41 1.063-4.343 4.903.897c.313 1.28.654 2.584 1.012 3.908l-14.464 3.851-3.687-10.888zm7.335-5.054-.732 4.722-5.836-.792 1.011-4.147-.962.008-.63 4.063-6.009-.813-1.59-4.688 16.739-1.935c.472 2.498 1.098 5.57 1.889 8.929l-4.092-.555 1.174-4.799zm70.276 14.731c.508-4.553.909-8.882 1.002-11.85l3.42 1.373-1.828 11.696zm-1.093 8.543c.347-2.6.451-3.002.788-5.89l4.558.966 1.88-13.41 1.835.736.95-2.422-12.001-5.546s-.207 20.43-3.145 35.418l-7.229 1.993c-7.964 1.152-15.996 3.016-32.906-.106 0 0-10.91-1.83-19.806-45.481l-28.99 7.2 1.22 2.652 7.363-.852c1.142 4.118 4.665 16.378 6.473 18.172l13.694-.652c.62 1.508 1.198 2.894 1.685 4.045l-23.298 6.297-17.295-33.23S45.78 95.164 65.543 88.552c0 0 11.734-21.025 16.815-18.182 4.153 2.316 11.014 4.564 18.261 6.32l17.005 15.403 10.166-12.159c4.995-.902 6.513-.748 9.18 1.65 1.186 1.071 3.121 3.688 3.668 8.278-9.946 11.779-13.06 15.04-26.017 13.91-14.691-1.279-31.834-30.5-31.834-30.5l-.034.085-.01-.02-2.205 3.6-.232.38-7.899 12.988s7.706 4.76 15.354 8.511v-.015l.045.028 1.198-.727c-.157-.315-9.421-6.164-9.451-6.182-3.334-2.475.99-11.055 2.253-13.389.866 1.103 2.149 2.75 3.58 4.646-.506 1.637-1.89 6.774-.27 9.387l.013-.034c.027.044.046.1.073.143 0 0 1.59-4.291 3.11-5.8.271.332.565.666.869 1.003 6.458 7.572 16.14 16.534 26.417 17.584 9.232.945 16.242-2.684 20.904-6.466.621 1.295.321 2.99.321 2.99.912-.921 2.004-4.75 2.335-6.366a35 35 0 0 0 2.738-2.95c.156 2.802.026 6.31-.055 7.543-.788.508-6.155 4.377-6.934 4.92l.975.959 8.573-5.851c8.367 4.434 12.114 16.348 12.114 16.348l-10.06 22.427zm-22.435 34.54c-3.574 7.43-13.307 11.606-20.026 13.68 4.787-2.528 6.719-5.323 6.629-5.297-1.991.614-4.728.285-8.846-.921 3.799.304 7.881.18 12.283-2.48 3.033-1.835 6.154-4.646 6.777-7.744 1.131-5.598-.832-11.418-2.374-13.903l.127-.008 3.877.37c3.31 6.09 3.834 11.57 1.553 16.304m6.577-93.696-5.166 8.7-9.76-10.55c5.58 1.058 10.908 1.735 14.926 1.85m21.148 15.365c-.335-5.57-2.882-14.558-3.673-16.503-.973-2.41-7.014-3.105-12.074-1.634-5.064 1.472-20.05-1.359-26.935-2.892-8.648-1.93-17.781-8.246-22.36-6.78-3.692 1.184-11.583 12.283-14.491 16.532-1.816 1.014-32.51 18.35-35.303 23.049l21.19 39.013 28.913-5.922c1.868 4.538 2.39 5.937 4.896 8.818.05.514.05.696.127 1.233-.007 5.217 1.666 18.463 3.948 23.128 0 0 3.099-15.547 5.766-17.302 3.702.52 7.477.823 11.238.922 1.974 2.591 5.635 8.172 4.646 13.066-.547 2.728-2.264 5.26-4.982 6.902-4.152 2.507-6.807 3.093-10.67 2.567-3.857-.525-8.498-3.672-8.498-3.672s3.286 5.637 10.54 7.745c1.224.356 1.401.414 1.902.404-1.843 1.352-7.107 4.502-12.61 6.646-.307.121 2.893-.15 4.03-.324 1.144-.172 21.885-3.776 27.828-16.103 2.47-5.126 3.162-11.214-.323-17.694 3.185-.345 9.641-1.605 9.797-1.614 3.05-.215.98 17.437.98 17.437 5.768-5.792 9.429-21.905 10.62-28.623l8.406-.475c2.396-2.909 14.353-27.103 14.353-27.103-3.794-8.964-14.446-18.417-17.261-20.821"/><path fill="#FFF" d="M89.503 154.23s-1.742 5.676-1.935 8.628c0 0-1.565-5.488-.784-10.286 0 0 2.034 1.44 2.719 1.657M131.742 154.526s.742 4.037-.122 8.038c0 0 2.211-4.11 2.369-8.85z"/></g></svg>