<?xml version="1.0" encoding="UTF-8"?>
<svg xmlns="http://www.w3.org/2000/svg" xmlns:xlink="http://www.w3.org/1999/xlink" width="250px" height="px" viewBox="0 0 250 158" version="1.1">
<g id="surface1">
<path style=" stroke:none;fill-rule:nonzero;fill:rgb(0%,23.921569%,46.666667%);fill-opacity:1;" d="M 0 53.035156 C 3.054688 52.722656 5.800781 52.566406 8.234375 52.566406 C 12.890625 52.566406 16.355469 53.402344 18.632812 55.074219 C 20.90625 56.746094 22.042969 59.304688 22.042969 62.75 C 22.042969 66.617188 20.871094 69.53125 18.527344 71.5 C 16.179688 73.464844 12.75 74.449219 8.234375 74.449219 L 4.535156 74.449219 L 4.535156 87.871094 L 0 87.871094 Z M 6.566406 70.636719 C 9.277344 70.636719 11.386719 70.394531 12.898438 69.90625 C 14.410156 69.417969 15.527344 68.617188 16.257812 67.503906 C 16.988281 66.390625 17.355469 64.890625 17.355469 63.011719 C 17.355469 60.785156 16.632812 59.121094 15.191406 58.023438 C 13.75 56.925781 11.550781 56.378906 8.597656 56.378906 C 6.828125 56.378906 5.453125 56.449219 4.480469 56.589844 L 4.480469 70.636719 Z M 26.003906 76.433594 C 26.109375 79.148438 26.8125 81.238281 28.113281 82.703125 C 29.417969 84.164062 31.285156 84.894531 33.71875 84.894531 C 36.601562 84.894531 38.894531 83.902344 40.597656 81.917969 C 40.996094 82.414062 41.34375 82.945312 41.636719 83.511719 C 41.917969 84.050781 42.054688 84.476562 42.054688 84.789062 C 42.054688 85.382812 41.671875 85.972656 40.910156 86.566406 C 39.03125 87.957031 36.496094 88.652344 33.300781 88.652344 C 29.476562 88.652344 26.542969 87.523438 24.492188 85.261719 C 22.441406 82.996094 21.417969 79.707031 21.417969 75.386719 C 21.417969 72.742188 21.894531 70.480469 22.851562 68.597656 C 24.285156 65.777344 25.144531 65.273438 26.863281 64.265625 C 28.585938 63.253906 30.503906 62.75 32.625 62.75 C 34.742188 62.75 36.546875 63.195312 38.042969 64.082031 C 39.535156 64.96875 40.675781 66.230469 41.457031 67.867188 C 42.238281 69.503906 42.628906 71.386719 42.628906 73.507812 C 42.628906 74.867188 42.578125 75.839844 42.472656 76.433594 Z M 38.199219 73.089844 C 38.199219 68.632812 36.269531 66.40625 32.414062 66.40625 C 30.574219 66.40625 29.078125 67.007812 27.933594 68.207031 C 26.785156 69.410156 26.144531 71.035156 26.003906 73.089844 Z M 46.121094 63.21875 C 46.414062 63.1875 46.710938 63.167969 47.007812 63.167969 C 47.945312 63.167969 48.707031 63.394531 49.296875 63.847656 C 49.890625 64.300781 50.238281 64.960938 50.339844 65.832031 C 51.3125 64.855469 52.503906 64.101562 53.910156 63.558594 C 55.316406 63.019531 56.835938 62.75 58.472656 62.75 C 60.589844 62.75 62.320312 63.21875 63.65625 64.160156 C 64.996094 65.101562 65.890625 66.457031 66.339844 68.234375 C 66.582031 69.171875 66.707031 70.773438 66.707031 73.039062 L 66.707031 87.871094 L 62.277344 87.871094 L 62.277344 73.195312 C 62.277344 71.488281 62.171875 70.289062 61.960938 69.589844 C 61.683594 68.617188 61.144531 67.902344 60.347656 67.449219 C 59.546875 66.996094 58.453125 66.769531 57.0625 66.769531 C 55.8125 66.769531 54.691406 66.945312 53.703125 67.292969 C 52.710938 67.640625 51.9375 68.101562 51.382812 68.675781 C 50.828125 69.253906 50.550781 69.851562 50.550781 70.480469 L 50.550781 87.871094 L 46.121094 87.871094 Z M 71.8125 63.21875 C 72.105469 63.1875 72.402344 63.167969 72.699219 63.167969 C 73.636719 63.167969 74.398438 63.394531 74.992188 63.847656 C 75.582031 64.300781 75.929688 64.960938 76.035156 65.832031 C 77.007812 64.855469 78.195312 64.101562 79.601562 63.558594 C 81.011719 63.019531 82.53125 62.75 84.164062 62.75 C 86.28125 62.75 88.011719 63.21875 89.347656 64.160156 C 90.6875 65.101562 91.582031 66.457031 92.03125 68.234375 C 92.273438 69.171875 92.398438 70.773438 92.398438 73.039062 L 92.398438 87.871094 L 87.96875 87.871094 L 87.96875 73.195312 C 87.96875 71.488281 87.863281 70.289062 87.65625 69.589844 C 87.375 68.617188 86.835938 67.902344 86.039062 67.449219 C 85.238281 66.996094 84.144531 66.769531 82.757812 66.769531 C 81.503906 66.773438 80.386719 66.945312 79.394531 67.292969 C 78.402344 67.640625 77.632812 68.101562 77.074219 68.675781 C 76.519531 69.253906 76.242188 69.851562 76.242188 70.480469 L 76.242188 87.871094 L 71.8125 87.871094 Z M 110.898438 69.070312 C 110.238281 68.269531 109.335938 67.617188 108.1875 67.113281 C 107.042969 66.605469 105.878906 66.355469 104.695312 66.355469 C 103.269531 66.355469 102.140625 66.625 101.308594 67.164062 C 100.476562 67.703125 100.058594 68.480469 100.058594 69.488281 C 100.058594 70.042969 100.207031 70.539062 100.5 70.976562 C 100.796875 71.410156 101.292969 71.792969 101.984375 72.125 C 102.679688 72.457031 103.757812 72.796875 105.214844 73.144531 C 107.230469 73.632812 108.804688 74.207031 109.933594 74.867188 C 111.0625 75.527344 111.894531 76.355469 112.4375 77.347656 C 112.972656 78.339844 113.242188 79.515625 113.242188 80.871094 C 113.242188 83.207031 112.355469 85.078125 110.585938 86.488281 C 108.8125 87.898438 106.519531 88.601562 103.707031 88.601562 C 101.378906 88.601562 99.46875 88.269531 97.972656 87.609375 C 96.410156 86.984375 95.628906 86.253906 95.628906 85.417969 C 95.628906 85.070312 95.714844 84.675781 95.890625 84.242188 C 96.0625 83.808594 96.410156 83.171875 96.929688 82.335938 C 97.90625 83.171875 99.015625 83.835938 100.214844 84.292969 C 101.429688 84.761719 102.644531 85 103.863281 85 C 105.460938 85 106.695312 84.675781 107.5625 84.03125 C 108.429688 83.386719 108.867188 82.457031 108.867188 81.238281 C 108.867188 80.160156 108.484375 79.296875 107.71875 78.652344 C 106.953125 78.007812 105.53125 77.460938 103.445312 77.007812 C 100.703125 76.417969 98.730469 75.539062 97.53125 74.371094 C 96.332031 73.203125 95.730469 71.664062 95.734375 69.75 C 95.734375 67.625 96.566406 65.929688 98.234375 64.65625 C 99.902344 63.386719 102.019531 62.75 104.59375 62.75 C 105.84375 62.75 107.023438 62.882812 108.136719 63.140625 C 109.246094 63.402344 110.152344 63.742188 110.847656 64.160156 C 112.027344 64.824219 112.617188 65.5 112.617188 66.195312 C 112.617188 66.929688 112.289062 67.867188 111.628906 69.019531 Z M 123.976562 87.820312 L 122.207031 87.820312 L 113.765625 63.585938 C 114.496094 63.3125 115.273438 63.171875 116.058594 63.167969 C 117.691406 63.167969 118.835938 64.160156 119.496094 66.144531 L 125.230469 83.957031 L 130.960938 66.617188 C 131.585938 64.316406 132.820312 63.167969 134.660156 63.167969 C 135.390625 63.167969 136.035156 63.324219 136.589844 63.640625 L 127.105469 91.265625 C 126.339844 93.492188 125.574219 95.164062 124.8125 96.28125 C 124.046875 97.394531 123.132812 98.21875 122.074219 98.761719 C 121.015625 99.300781 119.753906 99.570312 118.296875 99.570312 C 116.835938 99.570312 115.699219 99.359375 114.882812 98.941406 C 114.066406 98.523438 113.660156 97.949219 113.660156 97.21875 C 113.65625 96.382812 114.058594 95.425781 114.859375 94.347656 C 115.96875 95.253906 117.117188 95.703125 118.296875 95.703125 C 119.441406 95.703125 120.390625 95.289062 121.136719 94.453125 C 121.882812 93.617188 122.585938 92.1875 123.246094 90.167969 Z M 138.570312 50.84375 C 138.882812 50.808594 139.195312 50.792969 139.507812 50.789062 C 141.835938 50.789062 143 51.972656 143 54.34375 L 143 82.960938 C 143 83.9375 143.066406 84.597656 143.207031 84.945312 C 143.347656 85.296875 143.589844 85.546875 143.9375 85.703125 C 144.285156 85.859375 144.804688 85.9375 145.5 85.9375 L 145.5 87.820312 C 144.769531 88.0625 143.816406 88.183594 142.632812 88.183594 C 141.695312 88.183594 140.929688 88.027344 140.339844 87.714844 C 139.75 87.398438 139.308594 86.902344 139.011719 86.226562 C 138.71875 85.546875 138.570312 84.40625 138.570312 82.804688 Z M 145.5 63.585938 C 146.332031 63.308594 147.117188 63.167969 147.847656 63.167969 C 148.75 63.167969 149.46875 63.429688 150.007812 63.949219 C 150.546875 64.472656 151.039062 65.464844 151.492188 66.929688 L 157.070312 83.535156 L 162.75 67.136719 C 163.097656 66.09375 163.429688 65.300781 163.742188 64.761719 C 164.050781 64.222656 164.433594 63.820312 164.886719 63.558594 C 165.339844 63.296875 165.875 63.167969 166.503906 63.167969 C 167.335938 63.167969 168.03125 63.324219 168.585938 63.636719 L 159.207031 88.078125 L 154.671875 88.078125 Z M 170.722656 68.808594 C 170.441406 68.347656 170.203125 67.855469 170.019531 67.347656 C 169.828125 66.824219 169.734375 66.40625 169.734375 66.09375 C 169.734375 65.5 170.203125 64.945312 171.140625 64.421875 C 172.078125 63.898438 173.253906 63.492188 174.660156 63.195312 C 176.039062 62.902344 177.445312 62.753906 178.855469 62.75 C 182.117188 62.75 184.480469 63.445312 185.941406 64.839844 C 187.402344 66.234375 188.128906 68.582031 188.128906 71.890625 L 188.128906 82.175781 C 188.128906 83.152344 188.183594 83.894531 188.289062 84.398438 C 188.390625 84.902344 188.589844 85.25 188.886719 85.441406 C 189.179688 85.632812 189.78125 85.730469 190.683594 85.730469 L 190.683594 87.820312 C 189.953125 88.0625 189.101562 88.183594 188.128906 88.183594 C 185.558594 88.183594 184.152344 87.191406 183.910156 85.207031 C 182.796875 86.324219 181.609375 87.121094 180.339844 87.609375 C 179.070312 88.097656 177.621094 88.339844 175.988281 88.339844 C 173.519531 88.339844 171.601562 87.714844 170.230469 86.460938 C 168.855469 85.207031 168.167969 83.398438 168.167969 81.03125 C 168.167969 78.246094 169.34375 76.09375 171.6875 74.578125 C 174.03125 73.066406 177.324219 72.238281 181.5625 72.101562 C 182.605469 72.101562 183.335938 72.117188 183.753906 72.152344 L 183.753906 71.367188 C 183.75 69.625 183.324219 68.390625 182.476562 67.660156 C 181.621094 66.929688 180.242188 66.5625 178.332031 66.5625 C 176.976562 66.5625 175.753906 66.726562 174.660156 67.058594 C 173.5625 67.390625 172.425781 67.972656 171.242188 68.808594 Z M 183.804688 75.492188 L 182.292969 75.492188 C 179.132812 75.496094 176.726562 75.9375 175.074219 76.824219 C 173.425781 77.714844 172.601562 79.027344 172.601562 80.769531 C 172.601562 82.058594 172.972656 83.039062 173.722656 83.71875 C 174.46875 84.398438 175.570312 84.738281 177.03125 84.738281 C 178.175781 84.738281 179.28125 84.527344 180.339844 84.109375 C 181.398438 83.695312 182.242188 83.171875 182.867188 82.542969 C 183.492188 81.917969 183.804688 81.34375 183.804688 80.820312 Z M 193.5 63.21875 C 193.792969 63.1875 194.089844 63.167969 194.382812 63.167969 C 195.320312 63.167969 196.085938 63.394531 196.675781 63.847656 C 197.265625 64.300781 197.613281 64.960938 197.71875 65.832031 C 198.691406 64.855469 199.882812 64.101562 201.289062 63.558594 C 202.695312 63.019531 204.214844 62.75 205.847656 62.75 C 207.96875 62.75 209.699219 63.21875 211.035156 64.160156 C 212.371094 65.101562 213.265625 66.457031 213.71875 68.234375 C 213.960938 69.171875 214.085938 70.773438 214.085938 73.039062 L 214.085938 87.871094 L 209.652344 87.871094 L 209.652344 73.195312 C 209.652344 71.488281 209.550781 70.289062 209.339844 69.589844 C 209.0625 68.617188 208.523438 67.902344 207.726562 67.449219 C 206.925781 66.996094 205.832031 66.769531 204.441406 66.769531 C 203.191406 66.769531 202.070312 66.945312 201.082031 67.292969 C 200.089844 67.640625 199.316406 68.101562 198.761719 68.675781 C 198.207031 69.253906 197.929688 69.851562 197.929688 70.480469 L 197.929688 87.871094 L 193.5 87.871094 Z M 218.609375 57.324219 C 218.609375 56.53125 218.855469 55.882812 219.34375 55.375 C 219.835938 54.867188 220.441406 54.613281 221.171875 54.613281 C 221.898438 54.613281 222.507812 54.867188 222.996094 55.375 C 223.488281 55.882812 223.730469 56.53125 223.734375 57.324219 C 223.734375 58.050781 223.488281 58.664062 222.996094 59.152344 C 222.507812 59.644531 221.898438 59.890625 221.171875 59.890625 C 220.445312 59.890625 219.835938 59.644531 219.34375 59.152344 C 218.855469 58.664062 218.609375 58.050781 218.609375 57.324219 M 219.136719 63.0625 C 219.449219 63.03125 219.761719 63.011719 220.078125 63.011719 C 222.402344 63.011719 223.566406 64.195312 223.566406 66.5625 L 223.566406 83.171875 C 223.566406 84.285156 223.742188 85.023438 224.089844 85.390625 C 224.4375 85.753906 225.097656 85.9375 226.070312 85.9375 L 226.070312 87.820312 C 225.339844 88.0625 224.382812 88.183594 223.203125 88.183594 C 222.265625 88.183594 221.5 88.027344 220.910156 87.714844 C 220.320312 87.402344 219.875 86.90625 219.582031 86.226562 C 219.285156 85.546875 219.136719 84.40625 219.136719 82.804688 Z M 230.03125 68.808594 C 229.746094 68.347656 229.511719 67.855469 229.328125 67.347656 C 229.136719 66.824219 229.039062 66.40625 229.039062 66.09375 C 229.039062 65.5 229.507812 64.945312 230.449219 64.421875 C 231.386719 63.898438 232.558594 63.492188 233.964844 63.195312 C 235.34375 62.902344 236.75 62.753906 238.160156 62.75 C 241.425781 62.75 243.789062 63.445312 245.25 64.839844 C 246.707031 66.234375 247.4375 68.582031 247.4375 71.890625 L 247.4375 82.175781 C 247.4375 83.152344 247.488281 83.894531 247.59375 84.398438 C 247.699219 84.902344 247.898438 85.25 248.191406 85.441406 C 248.488281 85.632812 249.085938 85.730469 249.988281 85.730469 L 249.988281 87.820312 C 249.261719 88.0625 248.410156 88.183594 247.4375 88.183594 C 244.867188 88.183594 243.460938 87.191406 243.214844 85.207031 C 242.101562 86.324219 240.914062 87.121094 239.644531 87.609375 C 238.375 88.097656 236.925781 88.339844 235.292969 88.339844 C 232.828125 88.339844 230.90625 87.714844 229.535156 86.460938 C 228.164062 85.207031 227.476562 83.398438 227.476562 81.03125 C 227.476562 78.246094 228.648438 76.09375 230.996094 74.578125 C 233.339844 73.066406 236.628906 72.238281 240.871094 72.101562 C 241.914062 72.101562 242.640625 72.117188 243.058594 72.152344 L 243.058594 71.367188 C 243.058594 69.625 242.632812 68.390625 241.78125 67.660156 C 240.929688 66.929688 239.546875 66.5625 237.640625 66.5625 C 236.285156 66.5625 235.058594 66.726562 233.964844 67.058594 C 232.871094 67.390625 231.730469 67.972656 230.550781 68.808594 Z M 243.109375 75.492188 L 241.601562 75.492188 C 238.4375 75.496094 236.03125 75.9375 234.382812 76.824219 C 232.730469 77.714844 231.90625 79.027344 231.90625 80.769531 C 231.90625 82.058594 232.28125 83.039062 233.027344 83.71875 C 233.773438 84.398438 234.878906 84.738281 236.335938 84.738281 C 237.480469 84.738281 238.585938 84.527344 239.644531 84.109375 C 240.707031 83.695312 241.546875 83.171875 242.171875 82.542969 C 242.796875 81.917969 243.113281 81.34375 243.109375 80.820312 Z M 45.183594 93.949219 C 45.808594 93.738281 46.574219 93.632812 47.476562 93.632812 C 48.34375 93.632812 49.046875 93.859375 49.585938 94.3125 C 50.125 94.765625 50.550781 95.5 50.863281 96.507812 L 59.253906 123.613281 L 65.664062 102.042969 L 63.425781 93.894531 C 64.1875 93.722656 64.898438 93.632812 65.558594 93.632812 C 67.15625 93.632812 68.253906 94.609375 68.84375 96.558594 L 76.453125 123.402344 L 84.425781 96.613281 C 84.738281 95.566406 85.15625 94.808594 85.675781 94.339844 C 86.199219 93.871094 86.875 93.632812 87.707031 93.632812 C 88.335938 93.636719 89.027344 93.722656 89.792969 93.894531 L 78.691406 128.992188 L 74.160156 128.992188 L 67.695312 107.839844 L 61.289062 128.992188 L 56.753906 128.992188 Z M 91.199219 117.292969 C 91.304688 120.007812 92.007812 122.097656 93.3125 123.558594 C 94.613281 125.023438 96.480469 125.753906 98.914062 125.753906 C 101.796875 125.753906 104.089844 124.761719 105.792969 122.777344 C 106.191406 123.269531 106.542969 123.804688 106.835938 124.367188 C 107.113281 124.910156 107.253906 125.335938 107.25 125.648438 C 107.25 126.242188 106.871094 126.832031 106.105469 127.421875 C 104.230469 128.816406 101.691406 129.511719 98.496094 129.511719 C 94.675781 129.511719 91.738281 128.382812 89.691406 126.117188 C 87.640625 123.855469 86.613281 120.566406 86.613281 116.246094 C 86.613281 113.601562 87.09375 111.339844 88.046875 109.457031 C 89.003906 107.578125 90.339844 106.132812 92.058594 105.125 C 93.78125 104.113281 95.699219 103.609375 97.820312 103.609375 C 99.9375 103.609375 101.746094 104.054688 103.238281 104.941406 C 104.734375 105.828125 105.871094 107.089844 106.652344 108.726562 C 107.433594 110.363281 107.824219 112.246094 107.824219 114.367188 C 107.824219 115.726562 107.773438 116.699219 107.667969 117.292969 Z M 103.394531 113.949219 C 103.394531 109.492188 101.46875 107.265625 97.609375 107.265625 C 95.769531 107.265625 94.273438 107.867188 93.128906 109.066406 C 91.980469 110.269531 91.339844 111.898438 91.199219 113.949219 Z M 124.710938 109.929688 C 124.050781 109.128906 123.148438 108.476562 122 107.972656 C 120.855469 107.464844 119.691406 107.214844 118.507812 107.214844 C 117.082031 107.214844 115.957031 107.484375 115.121094 108.023438 C 114.289062 108.5625 113.871094 109.335938 113.871094 110.347656 C 113.871094 110.902344 114.019531 111.398438 114.3125 111.835938 C 114.609375 112.269531 115.101562 112.652344 115.796875 112.984375 C 116.492188 113.316406 117.570312 113.65625 119.027344 114.003906 C 121.042969 114.492188 122.617188 115.066406 123.746094 115.726562 C 124.875 116.386719 125.710938 117.214844 126.246094 118.207031 C 126.785156 119.199219 127.054688 120.375 127.054688 121.730469 C 127.054688 124.0625 126.167969 125.9375 124.398438 127.34375 C 122.625 128.757812 120.332031 129.460938 117.519531 129.460938 C 115.191406 129.460938 113.277344 129.128906 111.785156 128.46875 C 110.222656 127.839844 109.441406 127.109375 109.441406 126.273438 C 109.441406 125.925781 109.527344 125.535156 109.699219 125.097656 C 109.875 124.664062 110.222656 124.03125 110.742188 123.195312 C 111.714844 124.03125 112.828125 124.695312 114.027344 125.152344 C 115.242188 125.621094 116.457031 125.855469 117.675781 125.855469 C 119.273438 125.859375 120.507812 125.535156 121.375 124.890625 C 122.242188 124.246094 122.675781 123.316406 122.675781 122.097656 C 122.675781 121.019531 122.296875 120.15625 121.53125 119.511719 C 120.765625 118.867188 119.34375 118.320312 117.257812 117.867188 C 114.511719 117.273438 112.542969 116.394531 111.34375 115.230469 C 110.144531 114.0625 109.546875 112.523438 109.542969 110.605469 C 109.546875 108.484375 110.378906 106.785156 112.046875 105.515625 C 113.714844 104.242188 115.832031 103.609375 118.402344 103.609375 C 119.65625 103.609375 120.835938 103.738281 121.949219 104 C 123.058594 104.261719 123.960938 104.601562 124.65625 105.019531 C 125.839844 105.679688 126.429688 106.359375 126.429688 107.054688 C 126.429688 107.785156 126.097656 108.726562 125.441406 109.875 Z M 129.917969 96.664062 C 130.230469 96.628906 130.542969 96.613281 130.859375 96.609375 C 133.183594 96.609375 134.347656 97.792969 134.347656 100.164062 L 134.347656 104.183594 L 142.113281 104.183594 L 142.113281 107.945312 L 134.347656 107.945312 L 134.347656 121.417969 C 134.347656 124.273438 135.476562 125.699219 137.738281 125.699219 C 138.328125 125.699219 138.910156 125.578125 139.480469 125.335938 C 140.050781 125.09375 140.585938 124.777344 141.070312 124.394531 C 141.558594 124.011719 141.890625 123.699219 142.0625 123.457031 C 143.070312 124.710938 143.574219 125.683594 143.574219 126.378906 C 143.574219 126.867188 143.242188 127.371094 142.585938 127.894531 C 141.921875 128.414062 141.113281 128.816406 140.160156 129.09375 C 139.203125 129.375 138.171875 129.511719 137.058594 129.511719 C 133.585938 129.515625 131.378906 128.207031 130.441406 125.597656 C 130.09375 124.621094 129.917969 123.125 129.917969 121.105469 Z M 148.574219 117.292969 C 148.679688 120.007812 149.382812 122.097656 150.6875 123.558594 C 151.988281 125.023438 153.855469 125.753906 156.289062 125.753906 C 159.171875 125.753906 161.464844 124.761719 163.167969 122.777344 C 163.566406 123.269531 163.917969 123.804688 164.210938 124.367188 C 164.488281 124.910156 164.625 125.335938 164.625 125.648438 C 164.625 126.242188 164.246094 126.832031 163.480469 127.421875 C 161.605469 128.816406 159.070312 129.511719 155.875 129.511719 C 152.050781 129.511719 149.117188 128.382812 147.066406 126.117188 C 145.015625 123.855469 143.992188 120.566406 143.992188 116.246094 C 143.992188 113.601562 144.46875 111.339844 145.425781 109.457031 C 146.378906 107.578125 147.71875 106.132812 149.4375 105.125 C 151.15625 104.113281 153.078125 103.609375 155.195312 103.609375 C 157.316406 103.609375 159.121094 104.054688 160.617188 104.941406 C 162.109375 105.828125 163.25 107.089844 164.03125 108.726562 C 164.8125 110.363281 165.203125 112.246094 165.203125 114.367188 C 165.203125 115.726562 165.148438 116.699219 165.046875 117.292969 Z M 160.769531 113.949219 C 160.769531 109.492188 158.84375 107.265625 154.988281 107.265625 C 153.144531 107.265625 151.648438 107.867188 150.503906 109.066406 C 149.359375 110.269531 148.714844 111.898438 148.574219 113.949219 Z M 168.691406 104.082031 C 169.003906 104.050781 169.316406 104.03125 169.628906 104.027344 C 170.566406 104.027344 171.332031 104.253906 171.921875 104.707031 C 172.511719 105.160156 172.859375 105.804688 172.964844 106.640625 C 173.554688 105.734375 174.355469 105.003906 175.363281 104.445312 C 176.371094 103.886719 177.429688 103.609375 178.542969 103.609375 C 179.65625 103.609375 180.554688 103.800781 181.253906 104.183594 C 181.945312 104.566406 182.292969 105.105469 182.292969 105.804688 C 182.292969 106.253906 182.171875 106.804688 181.929688 107.449219 C 181.699219 108.0625 181.402344 108.648438 181.042969 109.199219 C 180.554688 108.746094 180.042969 108.414062 179.503906 108.207031 C 178.96875 107.996094 178.332031 107.894531 177.605469 107.894531 C 176.421875 107.894531 175.378906 108.25 174.476562 108.964844 C 173.574219 109.675781 173.121094 110.488281 173.121094 111.390625 L 173.121094 128.730469 L 168.691406 128.730469 Z M 184.222656 104.082031 C 184.515625 104.046875 184.8125 104.027344 185.109375 104.027344 C 186.046875 104.027344 186.808594 104.253906 187.402344 104.707031 C 187.992188 105.160156 188.339844 105.820312 188.445312 106.691406 C 189.417969 105.71875 190.605469 104.960938 192.011719 104.417969 C 193.421875 103.878906 194.941406 103.609375 196.574219 103.609375 C 198.691406 103.609375 200.421875 104.082031 201.757812 105.019531 C 203.097656 105.960938 203.992188 107.316406 204.441406 109.09375 C 204.6875 110.035156 204.808594 111.636719 204.808594 113.898438 L 204.808594 128.730469 L 200.378906 128.730469 L 200.378906 114.054688 C 200.378906 112.347656 200.273438 111.148438 200.066406 110.453125 C 199.785156 109.476562 199.25 108.761719 198.449219 108.308594 C 197.648438 107.859375 196.554688 107.632812 195.167969 107.628906 C 193.914062 107.632812 192.792969 107.804688 191.804688 108.152344 C 190.816406 108.5 190.042969 108.960938 189.484375 109.535156 C 188.929688 110.113281 188.652344 110.710938 188.652344 111.339844 L 188.652344 128.730469 L 184.222656 128.730469 Z M 184.222656 104.082031 "/>
<path style=" stroke:none;fill-rule:nonzero;fill:rgb(81.568629%,18.039216%,17.647059%);fill-opacity:1;" d="M 71.5 140.382812 L 71.5 151.425781 C 71.5 153.539062 70.949219 155.191406 69.851562 156.378906 C 68.753906 157.566406 66.972656 158.164062 64.511719 158.164062 C 63.253906 158.164062 62.175781 158.007812 61.273438 157.695312 C 60.367188 157.386719 59.625 156.945312 59.039062 156.367188 C 58.457031 155.789062 58.027344 155.085938 57.753906 154.25 C 57.476562 153.417969 57.339844 152.476562 57.339844 151.425781 L 57.339844 140.382812 L 56.613281 140.382812 L 56.613281 138.8125 L 59.597656 138.8125 L 59.597656 151 C 59.597656 152.9375 59.992188 154.316406 60.78125 155.140625 C 61.570312 155.964844 62.820312 156.378906 64.539062 156.378906 C 66.203125 156.378906 67.433594 155.964844 68.230469 155.140625 C 69.027344 154.316406 69.425781 152.9375 69.425781 151 L 69.425781 138.8125 L 72.222656 138.8125 L 72.222656 140.382812 Z M 91.597656 140.382812 L 91.597656 157.65625 L 88.914062 157.65625 L 78.34375 141.632812 L 78.34375 157.65625 L 75.597656 157.65625 L 75.597656 156.085938 L 76.324219 156.085938 L 76.324219 140.382812 L 75.597656 140.382812 L 75.597656 138.8125 L 79.007812 138.8125 L 89.578125 154.808594 L 89.578125 138.8125 L 92.324219 138.8125 L 92.324219 140.382812 Z M 96.183594 157.65625 L 96.183594 156.085938 L 96.9375 156.085938 L 96.9375 140.382812 L 96.183594 140.382812 L 96.183594 138.8125 L 99.867188 138.8125 L 99.867188 140.382812 L 99.117188 140.382812 L 99.117188 156.085938 L 99.867188 156.085938 L 99.867188 157.65625 Z M 117.949219 140.382812 L 111.890625 157.65625 L 109.632812 157.65625 L 103.601562 140.382812 L 102.875 140.382812 L 102.875 138.8125 L 105.4375 138.8125 L 110.933594 154.835938 L 116.460938 138.8125 L 118.675781 138.8125 L 118.675781 140.382812 Z M 121.195312 157.65625 L 121.195312 156.085938 L 121.921875 156.085938 L 121.921875 140.382812 L 121.195312 140.382812 L 121.195312 138.8125 L 132.65625 138.8125 L 132.65625 140.484375 L 124.101562 140.484375 L 124.101562 146.929688 L 131.910156 146.929688 L 131.910156 148.632812 L 124.101562 148.632812 L 124.101562 155.980469 L 133.558594 155.980469 L 133.558594 157.65625 Z M 147.964844 157.65625 C 147.554688 157.65625 147.21875 157.5625 146.953125 157.378906 C 146.679688 157.179688 146.457031 156.921875 146.304688 156.617188 C 146.121094 156.261719 145.972656 155.886719 145.863281 155.5 C 145.734375 155.050781 145.621094 154.597656 145.519531 154.144531 C 145.414062 153.65625 145.292969 153.171875 145.160156 152.691406 C 145.03125 152.207031 144.863281 151.738281 144.65625 151.28125 C 144.453125 150.832031 144.195312 150.414062 143.886719 150.03125 C 143.574219 149.648438 143.179688 149.335938 142.703125 149.085938 L 139.355469 149.085938 L 139.355469 156.085938 L 140.109375 156.085938 L 140.109375 157.65625 L 136.480469 157.65625 L 136.480469 156.085938 L 137.203125 156.085938 L 137.203125 140.378906 L 136.480469 140.378906 L 136.480469 138.8125 L 142.863281 138.8125 C 144.792969 138.8125 146.292969 139.273438 147.367188 140.195312 C 148.4375 141.117188 148.972656 142.386719 148.972656 144 C 148.972656 144.746094 148.863281 145.402344 148.640625 145.96875 C 148.417969 146.539062 148.078125 147.058594 147.644531 147.488281 C 147.320312 147.816406 146.941406 148.085938 146.527344 148.285156 C 146.121094 148.480469 145.589844 148.675781 144.933594 148.871094 C 145.378906 149.101562 145.746094 149.382812 146.035156 149.710938 C 146.328125 150.039062 146.570312 150.390625 146.765625 150.761719 C 147.058594 151.320312 147.117188 151.527344 147.230469 151.933594 C 147.347656 152.339844 147.457031 152.742188 147.5625 153.132812 C 147.597656 153.328125 147.636719 153.519531 147.683594 153.703125 C 147.726562 153.890625 147.777344 154.070312 147.832031 154.25 C 147.917969 154.640625 148.03125 154.949219 148.175781 155.179688 C 148.316406 155.464844 148.488281 155.6875 148.695312 155.84375 C 148.898438 156.003906 149.167969 156.085938 149.503906 156.085938 L 150.644531 156.085938 L 150.644531 157.65625 Z M 146.636719 144 C 146.636719 142.902344 146.328125 142.039062 145.71875 141.417969 C 145.109375 140.796875 144.21875 140.488281 143.046875 140.484375 L 139.355469 140.484375 L 139.355469 147.382812 L 143.046875 147.382812 C 145.441406 147.382812 146.636719 146.253906 146.636719 144 M 164.371094 152.757812 C 164.371094 153.648438 164.214844 154.421875 163.90625 155.085938 C 163.601562 155.746094 163.144531 156.320312 162.574219 156.765625 C 162 157.21875 161.304688 157.558594 160.492188 157.789062 C 159.675781 158.019531 158.765625 158.136719 157.753906 158.136719 C 156.675781 158.136719 155.695312 158.03125 154.808594 157.816406 C 153.921875 157.605469 153.167969 157.363281 152.550781 157.097656 L 152.550781 155.101562 C 153.171875 155.351562 153.894531 155.613281 154.726562 155.886719 C 155.558594 156.164062 156.523438 156.300781 157.621094 156.300781 C 159.003906 156.300781 160.097656 156.019531 160.902344 155.460938 C 161.707031 154.902344 162.113281 154.027344 162.113281 152.839844 C 162.113281 152.289062 162.007812 151.816406 161.804688 151.414062 C 161.601562 151.015625 161.324219 150.667969 160.96875 150.375 C 160.4375 149.9375 160.199219 149.828125 159.71875 149.605469 C 159.242188 149.382812 158.71875 149.175781 158.152344 148.980469 C 157.449219 148.75 156.753906 148.492188 156.066406 148.207031 C 155.386719 147.921875 154.777344 147.570312 154.238281 147.15625 C 153.703125 146.746094 153.257812 146.230469 152.933594 145.636719 C 152.605469 145.042969 152.441406 144.320312 152.441406 143.46875 C 152.441406 142.652344 152.59375 141.925781 152.894531 141.285156 C 153.1875 140.652344 153.625 140.097656 154.167969 139.660156 C 154.71875 139.21875 155.378906 138.886719 156.148438 138.664062 C 156.917969 138.441406 157.78125 138.332031 158.738281 138.332031 C 159.195312 138.332031 159.675781 138.363281 160.171875 138.425781 C 160.667969 138.484375 161.144531 138.566406 161.59375 138.664062 C 162.046875 138.761719 162.457031 138.867188 162.828125 138.984375 C 163.199219 139.097656 163.492188 139.210938 163.707031 139.316406 L 163.09375 140.941406 C 162.617188 140.746094 162.019531 140.550781 161.300781 140.355469 C 160.582031 140.15625 159.71875 140.0625 158.710938 140.0625 C 157.488281 140.0625 156.496094 140.339844 155.734375 140.898438 C 154.976562 141.460938 154.59375 142.226562 154.59375 143.203125 C 154.59375 143.648438 154.664062 144.042969 154.808594 144.386719 C 155.019531 144.90625 155.179688 145.046875 155.496094 145.332031 C 155.816406 145.617188 156.238281 145.886719 156.757812 146.144531 C 157.28125 146.402344 157.929688 146.65625 158.710938 146.902344 C 159.488281 147.164062 160.25 147.46875 160.996094 147.808594 C 161.6875 148.128906 162.285156 148.507812 162.789062 148.953125 C 163.289062 149.390625 163.6875 149.929688 163.957031 150.535156 C 164.234375 151.148438 164.371094 151.890625 164.371094 152.757812 M 167.796875 157.65625 L 167.796875 156.085938 L 168.550781 156.085938 L 168.550781 140.382812 L 167.796875 140.382812 L 167.796875 138.8125 L 171.480469 138.8125 L 171.480469 140.382812 L 170.726562 140.382812 L 170.726562 156.085938 L 171.480469 156.085938 L 171.480469 157.65625 Z M 182.289062 140.488281 L 182.289062 156.085938 L 183.015625 156.085938 L 183.015625 157.65625 L 179.386719 157.65625 L 179.386719 156.085938 L 180.113281 156.085938 L 180.113281 140.488281 L 174.109375 140.488281 L 174.109375 138.8125 L 188.292969 138.8125 L 188.292969 140.488281 Z M 203.691406 140.382812 L 198.644531 149.164062 L 198.644531 156.085938 L 199.371094 156.085938 L 199.371094 157.65625 L 195.738281 157.65625 L 195.738281 156.085938 L 196.464844 156.085938 L 196.464844 149.300781 L 190.859375 140.382812 L 189.992188 140.382812 L 189.992188 138.8125 L 192.320312 138.8125 L 197.660156 147.328125 L 202.546875 138.8125 L 204.664062 138.8125 L 204.664062 140.382812 Z M 203.691406 140.382812 "/>
<path style=" stroke:none;fill-rule:nonzero;fill:rgb(100%,100%,100%);fill-opacity:1;" d="M 157.191406 28.863281 L 148.058594 28.863281 C 147.988281 28.863281 147.917969 28.890625 147.867188 28.945312 C 147.820312 28.996094 147.792969 29.070312 147.800781 29.140625 C 147.828125 29.574219 147.847656 30.011719 147.847656 30.453125 C 147.847656 39.402344 141.851562 47.351562 133.246094 49.792969 C 132.382812 50.109375 131.5 50.367188 130.597656 50.5625 C 130.492188 50.585938 130.410156 50.675781 130.394531 50.78125 L 130.152344 52.542969 C 130.144531 52.621094 130.171875 52.699219 130.226562 52.753906 C 130.28125 52.808594 130.359375 52.839844 130.4375 52.832031 C 141.902344 51.675781 150.855469 42.488281 151.75 30.976562 C 151.777344 30.664062 151.792969 30.394531 151.804688 30.128906 L 157.226562 29.382812 C 157.367188 29.367188 157.46875 29.246094 157.457031 29.105469 C 157.449219 28.964844 157.332031 28.859375 157.191406 28.863281 "/>
<path style="fill:none;stroke-width:11.099;stroke-linecap:butt;stroke-linejoin:miter;stroke:rgb(100%,100%,100%);stroke-opacity:1;stroke-miterlimit:10;" d="M 284.565603 52.131031 L 268.032357 52.131031 C 267.905069 52.131031 267.777781 52.180426 267.685851 52.279217 C 267.600993 52.370951 267.551492 52.505023 267.565635 52.63204 C 267.615136 53.415307 267.650494 54.205632 267.650494 55.003012 C 267.650494 71.169374 256.795689 85.529281 241.217099 89.939572 C 239.65429 90.511146 238.056124 90.976872 236.422599 91.329695 C 236.231668 91.372034 236.083166 91.534333 236.054879 91.724858 L 235.616444 94.907323 C 235.602301 95.048453 235.651802 95.189582 235.750803 95.288373 C 235.849805 95.387163 235.991236 95.443615 236.132666 95.429502 C 256.887619 93.340788 273.095575 76.743982 274.714956 55.948578 C 274.764457 55.384061 274.792743 54.897165 274.813958 54.417325 L 284.629247 53.069541 C 284.883822 53.041315 285.067682 52.822564 285.046468 52.568532 C 285.032325 52.314499 284.820178 52.123974 284.565603 52.131031 Z M 284.565603 52.131031 " transform="matrix(0.552391,0,0,0.55357,0,0.00508807)"/>
<path style=" stroke:none;fill-rule:nonzero;fill:rgb(0%,23.921569%,46.666667%);fill-opacity:1;" d="M 109.253906 47.710938 C 109.171875 47.816406 109.191406 47.96875 109.292969 48.054688 L 109.292969 48.058594 C 109.378906 48.15625 109.527344 48.171875 109.632812 48.089844 L 113.660156 45.03125 L 112.308594 43.679688 Z M 146.363281 10.527344 C 146.46875 10.445312 146.617188 10.460938 146.703125 10.5625 L 146.707031 10.5625 C 146.804688 10.648438 146.820312 10.800781 146.742188 10.90625 L 143.6875 14.9375 L 142.335938 13.585938 Z M 146.363281 48.09375 C 146.46875 48.171875 146.617188 48.15625 146.703125 48.058594 L 146.703125 48.054688 L 146.707031 48.054688 C 146.804688 47.96875 146.820312 47.816406 146.742188 47.710938 L 143.6875 43.679688 L 142.335938 45.03125 Z M 109.253906 10.90625 C 109.175781 10.800781 109.191406 10.648438 109.289062 10.5625 L 109.292969 10.5625 C 109.378906 10.460938 109.527344 10.445312 109.632812 10.527344 L 113.660156 13.585938 L 112.308594 14.9375 Z M 109.253906 10.90625 "/>
<path style=" stroke:none;fill-rule:nonzero;fill:rgb(0%,23.921569%,46.666667%);fill-opacity:1;" d="M 129.90625 5.695312 C 129.59375 5.667969 129.328125 5.652344 129.0625 5.640625 L 128.320312 0.230469 C 128.304688 0.09375 128.183594 -0.00390625 128.046875 0.00390625 C 127.910156 0.0117188 127.804688 0.128906 127.804688 0.265625 L 127.804688 9.378906 C 127.804688 9.453125 127.835938 9.519531 127.886719 9.570312 C 127.9375 9.617188 128.007812 9.644531 128.082031 9.640625 C 128.511719 9.609375 128.949219 9.59375 129.386719 9.59375 C 138.277344 9.59375 146.179688 15.578125 148.605469 24.164062 C 148.808594 24.71875 148.976562 25.238281 149.113281 25.753906 C 149.210938 26.101562 149.296875 26.453125 149.375 26.808594 C 149.398438 26.914062 149.484375 26.996094 149.59375 27.011719 L 151.332031 27.25 L 151.371094 27.253906 C 151.441406 27.253906 151.511719 27.222656 151.5625 27.167969 C 151.609375 27.113281 151.632812 27.039062 151.625 26.964844 C 150.480469 15.527344 141.347656 6.589844 129.90625 5.695312 M 128.136719 49.066406 C 128.082031 49.015625 128.011719 48.988281 127.941406 48.996094 C 127.503906 49.027344 127.070312 49.042969 126.636719 49.042969 C 117.742188 49.042969 109.84375 43.058594 107.417969 34.46875 C 107.222656 33.949219 107.054688 33.417969 106.90625 32.882812 C 106.808594 32.53125 106.722656 32.183594 106.648438 31.828125 C 106.625 31.722656 106.539062 31.640625 106.429688 31.625 L 104.683594 31.382812 C 104.605469 31.375 104.527344 31.402344 104.472656 31.457031 C 104.417969 31.511719 104.386719 31.589844 104.394531 31.667969 C 105.542969 43.109375 114.675781 52.046875 126.113281 52.941406 C 126.128906 52.945312 126.144531 52.945312 126.164062 52.949219 C 126.425781 52.96875 126.691406 52.984375 126.957031 52.996094 L 127.699219 58.40625 C 127.71875 58.535156 127.828125 58.628906 127.957031 58.628906 L 127.976562 58.628906 C 128.109375 58.621094 128.214844 58.507812 128.214844 58.371094 L 128.214844 49.257812 C 128.214844 49.183594 128.1875 49.117188 128.136719 49.066406 M 125.800781 5.652344 C 125.746094 5.597656 125.667969 5.570312 125.59375 5.578125 C 115.699219 6.574219 107.695312 13.582031 105.152344 22.890625 C 105.136719 22.945312 105.113281 22.996094 105.101562 23.050781 C 104.980469 23.496094 104.894531 23.949219 104.800781 24.40625 C 104.75 24.652344 104.6875 24.890625 104.644531 25.140625 C 104.59375 25.433594 104.566406 25.738281 104.527344 26.035156 C 104.488281 26.3125 104.453125 26.585938 104.417969 26.863281 C 104.40625 26.96875 104.386719 27.074219 104.378906 27.179688 L 85.886719 28.925781 C 85.746094 28.9375 85.644531 29.058594 85.652344 29.195312 C 85.65625 29.335938 85.773438 29.445312 85.910156 29.445312 L 98.929688 29.445312 C 98.9375 29.445312 98.941406 29.449219 98.945312 29.449219 L 108.042969 29.449219 C 108.046875 29.449219 108.054688 29.445312 108.058594 29.445312 C 108.128906 29.441406 108.191406 29.414062 108.238281 29.363281 C 108.285156 29.3125 108.308594 29.242188 108.300781 29.175781 C 108.273438 28.738281 108.257812 28.300781 108.253906 27.867188 C 108.253906 18.957031 114.226562 11.039062 122.796875 8.605469 C 123.335938 8.40625 123.867188 8.234375 124.382812 8.09375 C 124.730469 8 125.082031 7.914062 125.433594 7.835938 C 125.539062 7.8125 125.621094 7.726562 125.636719 7.617188 L 125.875 5.863281 C 125.886719 5.785156 125.859375 5.707031 125.800781 5.652344 M 157.003906 29.113281 L 147.90625 29.113281 C 147.835938 29.113281 147.765625 29.140625 147.714844 29.195312 C 147.667969 29.246094 147.644531 29.316406 147.648438 29.390625 C 147.675781 29.820312 147.695312 30.257812 147.695312 30.695312 C 147.695312 39.609375 141.722656 47.523438 133.152344 49.957031 C 132.613281 50.15625 132.078125 50.328125 131.566406 50.46875 C 131.222656 50.5625 130.871094 50.652344 130.515625 50.726562 C 130.410156 50.75 130.328125 50.835938 130.3125 50.945312 L 130.070312 52.695312 C 130.0625 52.773438 130.089844 52.851562 130.148438 52.910156 C 130.195312 52.957031 130.261719 52.984375 130.328125 52.984375 L 130.355469 52.984375 C 141.773438 51.835938 150.691406 42.683594 151.582031 31.21875 C 151.585938 31.203125 151.589844 31.1875 151.589844 31.171875 C 151.609375 30.90625 151.625 30.640625 151.636719 30.371094 L 157.035156 29.628906 C 157.179688 29.621094 157.289062 29.496094 157.277344 29.351562 C 157.269531 29.210938 157.144531 29.101562 157.003906 29.113281 "/>
<path style=" stroke:none;fill-rule:nonzero;fill:rgb(81.568629%,18.039216%,17.647059%);fill-opacity:1;" d="M 137.199219 22.433594 L 138.902344 18.378906 L 117.054688 18.378906 L 118.757812 22.433594 L 114.8125 22.433594 L 121.363281 42.058594 L 134.59375 42.058594 L 141.140625 22.433594 Z M 137.199219 22.433594 "/>
<path style=" stroke:none;fill-rule:nonzero;fill:rgb(81.568629%,18.039216%,17.647059%);fill-opacity:1;" d="M 137.945312 24.742188 L 133.726562 24.742188 L 135.433594 20.6875 L 127.847656 20.6875 L 127.847656 39.75 L 132.9375 39.75 Z M 137.945312 24.742188 "/>
<path style=" stroke:none;fill-rule:nonzero;fill:rgb(100%,100%,100%);fill-opacity:1;" d="M 120.523438 20.6875 L 122.230469 24.742188 L 118.011719 24.742188 L 123.019531 39.75 L 127.847656 39.75 L 127.847656 20.6875 Z M 120.523438 20.6875 "/>
</g>
</svg>
